<svg width="24" height="24" viewBox="0 0 24 24" fill="none" xmlns="http://www.w3.org/2000/svg">
<path fill-rule="evenodd" clip-rule="evenodd" d="M16.0801 1.99989L7.91012 1.99989C4.38012 1.99989 2.00012 4.27089 2.00012 7.65989L2.00012 16.3299C2.00012 19.7199 4.38012 21.9999 7.91012 21.9999H16.0801C19.6201 21.9999 22.0001 19.7199 22.0001 16.3299L22.0001 7.65989C22.0001 4.27089 19.6201 1.99989 16.0801 1.99989ZM14.2701 12.7499L7.92012 12.7499C7.50012 12.7499 7.17012 12.4099 7.17012 11.9999C7.17012 11.5799 7.50012 11.2499 7.92012 11.2499L14.2701 11.2499L11.7901 8.77989C11.6501 8.63989 11.5701 8.43989 11.5701 8.24989C11.5701 8.06089 11.6501 7.86989 11.7901 7.71989C12.0801 7.42989 12.5601 7.42989 12.8501 7.71989L16.6201 11.4699C16.9001 11.7499 16.9001 12.2499 16.6201 12.5299L12.8501 16.2799C12.5601 16.5699 12.0801 16.5699 11.7901 16.2799C11.5001 15.9799 11.5001 15.5099 11.7901 15.2099L14.2701 12.7499Z" fill="black"/>
</svg>